# xmcd
#
# Track frame offsets: 
#        300
#        18731
#        38298
#        50709
#        68136
#        82262
#        99623
#        121628
#        139950
#        157978
#        170683
#        183357
#        200816
#
# Disc length: 3056 seconds
#
# Revision: 2
# Processed by: cddbd v1.5.2PL0 Copyright (c) Steve Scherf et al.
# Submitted via: ExactAudioCopy v1.0b1
#
DISCID=b70bec0d
DTITLE=Reverend Gary Davis - From Blues to Gospel
DYEAR=1971
DGENRE=Folk-Blues
TTITLE0=Talk on The Corner
TTITLE1=Sally, Where'd You Get Your Whiskey From?
TTITLE2=Crow Jane
TTITLE3=Eagle Rocking Blues
TTITLE4=Cocaine Blues
TTITLE5=Lost John
TTITLE6=Samson and Delilah
TTITLE7=I Heard The Angels Singing
TTITLE8=Children on Zion
TTITLE9=Lord I Wish I Could See
TTITLE10=Down By the River
TTITLE11=You Better Get Right
TTITLE12=I'll Do My Last Singing
EXTD=YEAR: 1996
EXTT0=
EXTT1=
EXTT2=
EXTT3=
EXTT4=
EXTT5=
EXTT6=
EXTT7=
EXTT8=
EXTT9=
EXTT10=
EXTT11=
EXTT12=
PLAYORDER=
